<svg width="22" height="26" viewBox="0 0 22 26" fill="none" xmlns="http://www.w3.org/2000/svg">
<path d="M11 0.8125C8.42561 0.8125 6.31248 2.92562 6.31248 5.5V6.4375H1.68311L1.62498 7.31687L0.687481 24.1919L0.628418 25.1875H21.3706L21.3125 24.1909L20.375 7.31594L20.3159 6.4375H15.6875V5.5C15.6875 2.92562 13.5744 0.8125 11 0.8125ZM11 2.6875C11.7459 2.6875 12.4613 2.98382 12.9887 3.51126C13.5162 4.03871 13.8125 4.75408 13.8125 5.5V6.4375H8.18748V5.5C8.18748 4.75408 8.4838 4.03871 9.01124 3.51126C9.53869 2.98382 10.2541 2.6875 11 2.6875ZM3.44092 8.3125H6.31248V11.125H8.18748V8.3125H13.8125V11.125H15.6875V8.3125H18.559L19.3794 23.3125H2.62154L3.44092 8.3125Z" fill="#1D1926"/>
</svg>
