<svg width="50" height="50" viewBox="0 0 50 50" fill="none" xmlns="http://www.w3.org/2000/svg">
<path d="M8.28539 20.5C8.36919 19.4558 8.84321 18.4815 9.61305 17.7712C10.3829 17.0608 11.392 16.6664 12.4396 16.6667H37.5604C38.6079 16.6664 39.6171 17.0608 40.3869 17.7712C41.1567 18.4815 41.6308 19.4558 41.7146 20.5L43.3875 41.3333C43.4335 41.9066 43.3603 42.4833 43.1725 43.0269C42.9848 43.5706 42.6865 44.0695 42.2964 44.4922C41.9064 44.9149 41.4331 45.2523 40.9063 45.4831C40.3795 45.7139 39.8106 45.8332 39.2354 45.8333H10.7646C10.1894 45.8332 9.6205 45.7139 9.09368 45.4831C8.56687 45.2523 8.09354 44.9149 7.70351 44.4922C7.31348 44.0695 7.01519 43.5706 6.82742 43.0269C6.63965 42.4833 6.56646 41.9066 6.61248 41.3333L8.28539 20.5V20.5Z" stroke="#DBBCA1" stroke-width="2" stroke-linecap="round" stroke-linejoin="round"/>
<path d="M33.3334 22.9167V12.5C33.3334 10.2899 32.4554 8.17024 30.8926 6.60743C29.3298 5.04463 27.2102 4.16666 25.0001 4.16666C22.7899 4.16666 20.6703 5.04463 19.1075 6.60743C17.5447 8.17024 16.6667 10.2899 16.6667 12.5V22.9167" stroke="#DBBCA1" stroke-width="2" stroke-linecap="round" stroke-linejoin="round"/>
</svg>
