<svg width="55" height="55" viewBox="0 0 55 55" fill="none" xmlns="http://www.w3.org/2000/svg">
<circle cx="27.5" cy="27.5" r="27.5" fill="#DBBCA1"/>
<path d="M12.4569 20.45C12.5323 19.5103 12.9589 18.6334 13.6517 17.9941C14.3446 17.3547 15.2528 16.9998 16.1956 17H38.8044C39.7471 16.9998 40.6554 17.3547 41.3482 17.9941C42.0411 18.6334 42.4677 19.5103 42.5431 20.45L44.0487 39.2C44.0901 39.716 44.0243 40.235 43.8553 40.7242C43.6863 41.2135 43.4178 41.6625 43.0668 42.043C42.7158 42.4234 42.2898 42.7271 41.8156 42.9348C41.3415 43.1425 40.8295 43.2498 40.3119 43.25H14.6881C14.1705 43.2498 13.6584 43.1425 13.1843 42.9348C12.7102 42.7271 12.2842 42.4234 11.9332 42.043C11.5821 41.6625 11.3137 41.2135 11.1447 40.7242C10.9757 40.235 10.9098 39.716 10.9512 39.2L12.4569 20.45V20.45Z" stroke="white" stroke-width="2" stroke-linecap="round" stroke-linejoin="round"/>
<path d="M35 22.625V13.25C35 11.2609 34.2098 9.35322 32.8033 7.9467C31.3968 6.54018 29.4891 5.75 27.5 5.75C25.5109 5.75 23.6032 6.54018 22.1967 7.9467C20.7902 9.35322 20 11.2609 20 13.25V22.625" stroke="white" stroke-width="2" stroke-linecap="round" stroke-linejoin="round"/>
</svg>
